# xmcd
#
# Track frame offsets:
#	150
#	12825
#	25270
#	38069
#	50495
#	64291
#	76421
#	88582
#	101481
#	112366
#	126109
#	138446
#	150768
#	163281
#	175182
#	186879
#	199387
#	213859
#	225961
#	237113
#
# Disc length: 3342 seconds
#
# Revision: 1
# Processed by: cddbd v1.5.2PL0 Copyright (c) Steve Scherf et al.
# Submitted via: audiograbber 1.83.01
#
DISCID=080d0c14
DTITLE=AUTRY GENE [2006] CD2 - COUNTRY MUSIC LEGENDS [AUTRY 2]
DYEAR=2006
DGENRE=Country
TTITLE0=THAT SILVER-HAIRED DADDY OF MINE
TTITLE1=ANY OLD TIME
TTITLE2=HIGH STEPPIN' MAMA BLUES
TTITLE3=BIRMINGHAM DADDY
TTITLE4=DALLAS COUNTY JAIL BLUES
TTITLE5=JAIL HOUSE BLUES
TTITLE6=ATLANTA BOUND
TTITLE7=BEAR CAT PAPA BLUES
TTITLE8=WILDCAT MAMA BLUES
TTITLE9=A YODELLING HOBO
TTITLE10=SLUE-FOOT LUE
TTITLE11=FRANKIE AND JOHNNY
TTITLE12=DO RIGHT DADDY BLUES
TTITLE13=LEFT MY GAL IN THE MOUNTAINS
TTITLE14=I'VE ALWAYS BEEN A RAMBLER
TTITLE15=DUST PAN BLUES
TTITLE16=THAT'S WHY I LEFT THE MOUNTAINS
TTITLE17=WAITING FOR A TRAIN
TTITLE18=THE RHEUMATISM BLUES
TTITLE19=WHEN JIMIE RODGERS SAID GOODBYE
EXTD=
EXTT0=
EXTT1=
EXTT2=
EXTT3=
EXTT4=
EXTT5=
EXTT6=
EXTT7=
EXTT8=
EXTT9=
EXTT10=
EXTT11=
EXTT12=
EXTT13=
EXTT14=
EXTT15=
EXTT16=
EXTT17=
EXTT18=
EXTT19=
PLAYORDER=
